<?xml version="1.0" encoding="iso-8859-1"?>
<!-- Generator: Adobe Illustrator 19.0.0, SVG Export Plug-In . SVG Version: 6.00 Build 0)  -->
<svg version="1.1" id="Capa_1" xmlns="http://www.w3.org/2000/svg" xmlns:xlink="http://www.w3.org/1999/xlink" x="0px" y="0px"
	 viewBox="0 0 512 512" style="enable-background:new 0 0 512 512;" xml:space="preserve">
<g>
	<g>
		<g>
			<path d="M448,192C447.92,85.882,361.83-0.079,255.712,0.001c-6.67,0.005-13.335,0.357-19.968,1.055l3.344,31.824
				c5.618-0.585,11.263-0.878,16.912-0.88c88.322,0.106,159.894,71.678,160,160v140.656c0,56.928-74.48,109.648-118.896,136
				c-25.401,14.812-56.807,14.812-82.208,0C170.48,442.32,96,389.6,96,332.672V192c-0.031-29.873,8.311-59.156,24.08-84.528
				L92.928,90.56C73.985,121.001,63.962,156.146,64,192v140.656c0,69.12,73.168,127.072,134.544,163.52
				c35.405,21.077,79.508,21.077,114.912,0C374.832,459.744,448,401.792,448,332.672V192z"/>
			<path d="M210.624,38.496L201.6,7.808c-11.175,3.299-22.025,7.61-32.416,12.88l14.48,28.528
				C192.31,44.84,201.333,41.252,210.624,38.496z"/>
			<path d="M159.024,64.672l-19.392-25.44c-9.255,7.063-17.855,14.946-25.696,23.552L137.6,84.32
				C144.129,77.132,151.3,70.556,159.024,64.672z"/>
			<rect x="224" y="384" width="64" height="32"/>
			<polygon points="32,32 96,32 96,0 0,0 0,96 32,96 			"/>
			<polygon points="480,480 416,480 416,512 512,512 512,416 480,416 			"/>
			<polygon points="416,0 416,32 480,32 480,96 512,96 512,0 			"/>
			<polygon points="32,416 0,416 0,512 96,512 96,480 32,480 			"/>
			<rect x="304" y="224" width="80" height="32"/>
			<rect x="128" y="224" width="80" height="32"/>
		</g>
	</g>
</g>
<g>
</g>
<g>
</g>
<g>
</g>
<g>
</g>
<g>
</g>
<g>
</g>
<g>
</g>
<g>
</g>
<g>
</g>
<g>
</g>
<g>
</g>
<g>
</g>
<g>
</g>
<g>
</g>
<g>
</g>
</svg>
